<svg xmlns="http://www.w3.org/2000/svg" version="1.1" xmlns:xlink="http://www.w3.org/1999/xlink" xmlns:svgjs="http://svgjs.dev/svgjs" width="1000" height="1060" viewBox="0 0 1000 1060"><g transform="matrix(1,0,0,1,0.5100105816538303,0.429149797570858)"><svg viewBox="0 0 233 247" data-background-color="#0d0000" preserveAspectRatio="xMidYMid meet" height="1060" width="1000" xmlns="http://www.w3.org/2000/svg" xmlns:xlink="http://www.w3.org/1999/xlink"><g id="tight-bounds" transform="matrix(1,0,0,1,-0.11883246552534388,-0.09999999999999432)"><svg viewBox="0 0 233.2376649310507 247.2" height="247.2" width="233.2376649310507"><g><svg viewBox="0 0 233.2376649310507 247.2" height="247.2" width="233.2376649310507"><g><svg viewBox="0 0 233.2376649310507 247.2" height="247.2" width="233.2376649310507"><g><svg viewBox="0 0 391.9885714285714 415.4542315701374" height="247.2" width="233.2376649310507"><g transform="matrix(1,0,0,1,0,168.2542315701374)"><svg viewBox="0 0 391.9885714285714 247.2" height="247.2" width="391.9885714285714"><g id="textblocktransform"><svg viewBox="0 0 391.9885714285714 247.2" height="247.2" width="391.9885714285714" id="textblock"><g><svg viewBox="0 0 391.9885714285714 247.2" height="247.2" width="391.9885714285714"><g transform="matrix(1,0,0,1,0,0)"><svg width="391.9885714285714" viewBox="0.4 -35 55.5 35" height="247.2" data-palette-color="#f13c20"><path d="M6.65-33.5L6.65-35 26.9-35 14.4-15 14.4 0 12.9 0 12.9-15 0.4-35 2.15-35 13.65-16.65 24.2-33.5 6.65-33.5ZM32.25-35L33.75-35 33.75 0 32.25 0 32.25-35ZM52.15-35L54.3-35 37.5-18.3 55.9 0 53.75 0 35.35-18.3 52.15-35Z" opacity="1" transform="matrix(1,0,0,1,0,0)" fill="#f13c20" class="wordmark-text-0" data-fill-palette-color="primary" id="text-0"></path></svg></g></svg></g></svg></g></svg></g><g transform="matrix(1,0,0,1,135.4320514285714,0)"><svg viewBox="0 0 121.12446857142857 109.8962443701374" height="109.8962443701374" width="121.12446857142857"><g><svg xmlns="http://www.w3.org/2000/svg" xmlns:xlink="http://www.w3.org/1999/xlink" version="1.1" x="0" y="0" viewBox="18.275000000000006 21.875000000000004 64.725 58.724999999999994" enable-background="new 0 0 100 100" xml:space="preserve" height="109.8962443701374" width="121.12446857142857" class="icon-icon-0" data-fill-palette-color="accent" id="icon-0"><g fill="#f13c20" data-fill-palette-color="accent"><path fill="#f13c20" d="M82.7 50.6L63.6 31.3c-0.3-0.3-0.9-0.3-1.2 0-0.3 0.3-0.3 0.9 0 1.2l18.6 18.7L62.3 70c-0.3 0.3-0.3 0.9 0 1.2 0.2 0.2 0.4 0.3 0.6 0.3 0.2 0 0.5-0.1 0.6-0.3l19.2-19.3C83.1 51.5 83.1 51 82.7 50.6z" data-fill-palette-color="accent"></path><path fill="#f13c20" d="M38.9 31.3c-0.3-0.3-0.9-0.3-1.2 0L18.5 50.6c-0.3 0.3-0.3 0.9 0 1.2l19.2 19.3c0.2 0.2 0.4 0.3 0.6 0.3 0.2 0 0.4-0.1 0.6-0.3 0.3-0.3 0.3-0.9 0-1.2L20.4 51.2l18.6-18.7C39.3 32.2 39.3 31.6 38.9 31.3z" data-fill-palette-color="accent"></path><path fill="#f13c20" d="M59.8 21.9c-0.5-0.1-1 0.1-1.1 0.6L40.8 79.5c-0.1 0.5 0.1 1 0.6 1.1 0.1 0 0.2 0 0.3 0 0.4 0 0.7-0.2 0.8-0.6L60.4 23C60.5 22.5 60.3 22 59.8 21.9z" data-fill-palette-color="accent"></path></g></svg></g></svg></g><g></g></svg></g></svg></g></svg></g><defs></defs></svg><rect width="233.2376649310507" height="247.2" fill="none" stroke="none" visibility="hidden"></rect></g></svg></g></svg>